<svg xmlns="http://www.w3.org/2000/svg" viewBox="0 0 256 256" fill="none">
  <defs>
    <linearGradient id="purpleGlow" x1="82" x2="228" y1="44" y2="214" gradientUnits="userSpaceOnUse">
      <stop offset="0" stop-color="#F7F4FF" />
      <stop offset="0.45" stop-color="#D9C2FF" />
      <stop offset="1" stop-color="#B47BFF" />
    </linearGradient>
    <linearGradient id="whitePurple" x1="78" x2="184" y1="70" y2="198" gradientUnits="userSpaceOnUse">
      <stop offset="0" stop-color="#FFFFFF" />
      <stop offset="1" stop-color="#C084FC" />
    </linearGradient>
  </defs>

  <g stroke="#F8FAFC" stroke-linecap="round" stroke-linejoin="round">
    <path d="M88 38C63 38 44 57 44 82c0 9 3 18 8 25-12 8-20 22-20 38 0 26 21 47 47 47h37" opacity="0.98" stroke-width="10"/>
    <path d="M98 58H70c-11 0-20 9-20 20v2" stroke-width="8"/>
    <path d="M98 84H62c-13 0-24 11-24 24v0" stroke-width="8"/>
    <path d="M98 110H56c-13 0-24 11-24 24v2" stroke-width="8"/>
    <path d="M98 136H60c-12 0-22 10-22 22v6" stroke-width="8"/>
    <path d="M98 162H70c-11 0-20 9-20 20v6" stroke-width="8"/>
    <path d="M98 188H82c-10 0-18 8-18 18v10" stroke-width="8"/>
    <path d="M74 58v24" stroke-width="8"/>
    <path d="M66 84v26" stroke-width="8"/>
    <path d="M60 110v26" stroke-width="8"/>
    <path d="M66 136v26" stroke-width="8"/>
    <path d="M76 162v26" stroke-width="8"/>
    <path d="M88 188v22" stroke-width="8"/>
    <circle cx="74" cy="58" r="4.5" fill="#0B1120" stroke-width="4"/>
    <circle cx="66" cy="84" r="4.5" fill="#0B1120" stroke-width="4"/>
    <circle cx="60" cy="110" r="4.5" fill="#0B1120" stroke-width="4"/>
    <circle cx="66" cy="136" r="4.5" fill="#0B1120" stroke-width="4"/>
    <circle cx="76" cy="162" r="4.5" fill="#0B1120" stroke-width="4"/>
    <circle cx="88" cy="188" r="4.5" fill="#0B1120" stroke-width="4"/>
    <circle cx="94" cy="84" r="4.5" fill="#C084FC" stroke="#E9D5FF" stroke-width="3"/>
    <circle cx="92" cy="162" r="4.5" fill="#C084FC" stroke="#E9D5FF" stroke-width="3"/>
  </g>

  <g stroke="url(#purpleGlow)" stroke-linecap="round" stroke-linejoin="round" stroke-width="8">
    <path d="M164 40h28l14 16v28l-14 16h-28l-14-16V56l14-16Z"/>
    <path d="M196 86h28l14 16v28l-14 16h-28l-14-16v-28l14-16Z"/>
    <path d="M164 132h28l14 16v28l-14 16h-28l-14-16v-28l14-16Z"/>
    <path d="M196 178h22l12 14v24l-12 14h-22l-12-14v-24l12-14Z"/>
    <path d="M132 86h28l14 16v28l-14 16h-28l-14-16v-28l14-16Z" opacity="0.95"/>
  </g>

  <g stroke="url(#whitePurple)" stroke-linecap="round" stroke-linejoin="round">
    <path d="M102 196 132 70l29 126" stroke-width="12"/>
    <path d="M114 146h36" stroke-width="10"/>
    <path d="M124 126 132 94l8 32" stroke-width="8" opacity="0.92"/>
    <path d="M168 72v124" stroke-width="12"/>
    <path d="M156 72h24" stroke-width="8"/>
    <path d="M156 196h24" stroke-width="8"/>
  </g>
</svg>